<svg width="134" height="31" viewBox="0 0 134 31" fill="none" xmlns="http://www.w3.org/2000/svg">
<g clip-path="url(#clip0_3293_2243)">
<path d="M8.97417 18.9495L7.32008 20.8704V30.5634H0V0H7.32008V11.1344L7.58012 11.2203L16.0758 0H24.9226L25.0097 0.218954L13.8104 13.3172L27.2737 30.5634H17.8639L8.97417 18.9495Z" fill="#683FDB"/>
<path d="M66.0845 10.1296L66.3016 9.99526V8.72855H73.6217V30.5634H66.3016V28.5982L66.0416 28.5109C64.7762 29.9522 62.598 31 59.897 31C54.0152 31 49.3975 25.9775 49.3975 19.648C49.3975 13.3185 54.1895 8.29602 60.3327 8.29602C62.9908 8.29602 64.7762 9.03751 66.0845 10.1296ZM66.3016 22.3533V15.457C65.0389 14.6712 63.2964 14.2346 61.2482 14.2346C58.7644 14.2346 56.7162 16.4174 56.7162 19.648C56.7162 22.8786 58.7644 25.0627 61.2482 25.0627C63.3393 25.0627 65.2574 24.3629 66.3016 22.3547V22.3533Z" fill="#683FDB"/>
<path d="M75.8896 8.73258H83.2084V11.0914L83.4765 11.2257C84.9134 9.52377 87.353 8.30139 90.4896 8.30139C94.8031 8.30139 98.3767 11.4017 98.3767 17.4706V30.5688H91.0512V17.9447C91.0512 15.3254 89.3087 14.2346 87.2176 14.2346C85.6493 14.2346 84.211 14.6269 83.2084 15.457V30.5634H75.8896V8.73258Z" fill="#683FDB"/>
<path d="M99.1621 8.73261H102.212V1.29358H109.53V8.73261H114.544V14.1903H109.533V21.9182C109.533 23.6201 110.534 24.3629 112.017 24.3629C112.859 24.3598 113.697 24.2275 114.499 23.9707L115.372 29.8636C114.195 30.4318 112.234 30.7811 110.579 30.7811C105.744 30.7811 102.214 27.7251 102.214 22.3977V14.1903H99.1621V8.73261Z" fill="#683FDB"/>
<path d="M118.227 23.7947C120.144 24.4059 122.018 24.7994 124.021 24.7994C125.59 24.7994 126.766 24.4945 126.766 23.6201C126.766 22.9229 126.287 22.3547 123.846 21.8738C119.578 21.088 117.052 18.9925 117.052 15.457C117.052 10.6978 121.321 8.29602 126.07 8.29602C128.553 8.29602 130.862 8.86288 132.996 9.69302L132.082 15.3254C130.252 14.7572 128.423 14.3206 126.549 14.3206C125.329 14.3206 124.283 14.7142 124.283 15.457C124.283 16.0682 124.502 16.7224 127.29 17.2462C131.472 17.9891 133.999 19.648 133.999 23.4454C133.999 28.5109 129.381 30.8683 124.545 30.8683C121.974 30.8683 119.534 30.3001 117.269 29.4284L118.227 23.7947Z" fill="#683FDB"/>
<path d="M34.5149 14.6134L37.6488 19.5042L48.1484 12.6831V8.7312H40.8283H33.031H25.7109V19.9394L34.5149 14.6134Z" fill="#79A52B"/>
<path d="M36.8886 23.025L33.7158 18.0644L25.9346 22.7658C26.9533 27.8219 31.3526 30.992 36.9502 30.992C43.3548 30.992 48.1468 26.844 48.1468 20.4688V15.7109L36.8886 23.025Z" fill="#683FDB"/>
</g>
<defs>
<clipPath id="clip0_3293_2243">
<rect width="134" height="31" fill="white"/>
</clipPath>
</defs>
</svg>
