<svg width="220" height="33" viewBox="0 0 220 33" fill="none" xmlns="http://www.w3.org/2000/svg">
<path d="M219.04 20.6361C219.04 21.3018 218.999 21.9952 218.915 22.7164H202.814C202.925 24.1587 203.383 25.2681 204.187 26.0448C205.019 26.7937 206.032 27.1681 207.224 27.1681C208.999 27.1681 210.234 26.4192 210.927 24.9214H218.499C218.111 26.447 217.404 27.8199 216.377 29.0404C215.379 30.2608 214.117 31.2177 212.591 31.9111C211.066 32.6045 209.36 32.9513 207.474 32.9513C205.199 32.9513 203.175 32.4659 201.4 31.4951C199.624 30.5243 198.238 29.1374 197.239 27.3345C196.24 25.5316 195.741 23.4236 195.741 21.0105C195.741 18.5974 196.227 16.4894 197.197 14.6865C198.196 12.8836 199.583 11.4968 201.358 10.526C203.133 9.55522 205.172 9.06982 207.474 9.06982C209.721 9.06982 211.718 9.54135 213.465 10.4844C215.212 11.4275 216.572 12.7727 217.542 14.5201C218.541 16.2675 219.04 18.3062 219.04 20.6361ZM211.759 18.7639C211.759 17.5434 211.343 16.5726 210.511 15.8515C209.679 15.1303 208.639 14.7697 207.391 14.7697C206.198 14.7697 205.186 15.1165 204.354 15.8099C203.549 16.5033 203.05 17.488 202.856 18.7639H211.759Z" fill="black"/>
<path d="M185.481 32.9513C183.456 32.9513 181.653 32.6045 180.072 31.9111C178.491 31.2177 177.243 30.2746 176.327 29.082C175.412 27.8615 174.899 26.5024 174.788 25.0046H181.819C181.903 25.809 182.277 26.4608 182.943 26.9601C183.608 27.4594 184.427 27.709 185.397 27.709C186.285 27.709 186.965 27.5426 187.436 27.2097C187.935 26.8491 188.185 26.3915 188.185 25.8368C188.185 25.1711 187.838 24.6857 187.145 24.3806C186.451 24.0477 185.328 23.6871 183.775 23.2988C182.111 22.9105 180.724 22.5083 179.614 22.0923C178.505 21.6485 177.548 20.9689 176.744 20.0536C175.939 19.1106 175.537 17.8485 175.537 16.2675C175.537 14.9362 175.898 13.7296 176.619 12.6479C177.368 11.5384 178.449 10.6647 179.864 10.0267C181.306 9.3888 183.012 9.06982 184.981 9.06982C187.894 9.06982 190.182 9.79098 191.846 11.2333C193.538 12.6756 194.509 14.5895 194.759 16.9748H188.185C188.074 16.1705 187.713 15.5325 187.103 15.061C186.521 14.5895 185.744 14.3537 184.773 14.3537C183.941 14.3537 183.303 14.5201 182.86 14.853C182.416 15.1581 182.194 15.588 182.194 16.1427C182.194 16.8084 182.541 17.3077 183.234 17.6405C183.955 17.9734 185.065 18.3062 186.562 18.639C188.282 19.0828 189.683 19.5266 190.764 19.9704C191.846 20.3865 192.789 21.0799 193.594 22.0507C194.426 22.9937 194.856 24.2696 194.883 25.8784C194.883 27.2375 194.495 28.4579 193.718 29.5396C192.97 30.5936 191.874 31.4257 190.432 32.0359C189.017 32.6461 187.367 32.9513 185.481 32.9513Z" fill="black"/>
<path d="M161.076 3.41162L153.462 32.6185H144.85L140.19 13.3969L135.364 32.6185H126.751L119.346 3.41162H126.959L131.162 24.6719L136.362 3.41162H144.184L149.177 24.6719L153.42 3.41162H161.076Z" fill="black"/>
<path d="M106.074 14.3537V25.5039C106.074 26.2805 106.254 26.8491 106.615 27.2097C107.003 27.5425 107.641 27.709 108.529 27.709H111.233V32.6184H107.572C102.663 32.6184 100.208 30.233 100.208 25.4623V14.3537H97.4619V9.56906H100.208V3.86914H106.074V9.56906H111.233V14.3537H106.074Z" fill="#007FFF"/>
<path d="M86.639 9.23633C89.385 9.23633 91.6039 10.11 93.2959 11.8575C94.9878 13.5771 95.8338 15.9903 95.8338 19.0968V32.6185H90.0091V19.8873C90.0091 18.0566 89.5514 16.6559 88.6361 15.6851C87.7208 14.6866 86.4726 14.1874 84.8916 14.1874C83.2829 14.1874 82.007 14.6866 81.0639 15.6851C80.1486 16.6559 79.691 18.0566 79.691 19.8873V32.6185H73.8662V9.56917H79.691V12.4399C80.4676 11.4414 81.4522 10.6648 82.6449 10.11C83.8653 9.52756 85.1967 9.23633 86.639 9.23633Z" fill="#007FFF"/>
<path d="M71.695 20.5947C71.695 21.4268 71.6395 22.1757 71.5286 22.8414H54.6785C54.8171 24.5056 55.3996 25.8092 56.4259 26.7522C57.4521 27.6953 58.7142 28.1668 60.212 28.1668C62.3754 28.1668 63.9148 27.2376 64.8301 25.3793H71.1125C70.4469 27.5982 69.171 29.4289 67.2848 30.8712C65.3987 32.2857 63.0827 32.993 60.3368 32.993C58.1178 32.993 56.1208 32.5076 54.3456 31.5369C52.5982 30.5383 51.2252 29.1376 50.2267 27.3347C49.2559 25.5318 48.7705 23.4516 48.7705 21.0939C48.7705 18.7086 49.2559 16.6144 50.2267 14.8115C51.1975 13.0086 52.5566 11.6218 54.304 10.651C56.0514 9.68022 58.0624 9.19482 60.3368 9.19482C62.528 9.19482 64.4834 9.66635 66.2031 10.6094C67.9505 11.5525 69.2958 12.8977 70.2388 14.6451C71.2096 16.3648 71.695 18.348 71.695 20.5947ZM65.6622 18.9305C65.6345 17.4327 65.0936 16.24 64.0396 15.3524C62.9856 14.4371 61.6959 13.9794 60.1704 13.9794C58.728 13.9794 57.5076 14.4232 56.5091 15.3108C55.5383 16.1706 54.942 17.3772 54.7201 18.9305H65.6622Z" fill="#007FFF"/>
<path d="M43.7226 6.82326C42.6963 6.82326 41.8365 6.50429 41.1431 5.86634C40.4774 5.20066 40.1445 4.38242 40.1445 3.41163C40.1445 2.44084 40.4774 1.63647 41.1431 0.998526C41.8365 0.332842 42.6963 0 43.7226 0C44.7488 0 45.5948 0.332842 46.2605 0.998526C46.9539 1.63647 47.3006 2.44084 47.3006 3.41163C47.3006 4.38242 46.9539 5.20066 46.2605 5.86634C45.5948 6.50429 44.7488 6.82326 43.7226 6.82326ZM46.5934 9.56921V32.6185H40.7686V9.56921H46.5934Z" fill="#007FFF"/>
<path d="M37.0943 1.83057V32.6185H31.2695V1.83057H37.0943Z" fill="#007FFF"/>
<path d="M0 18.0567C0 15.1998 0.637948 12.648 1.91384 10.4013C3.21747 8.1269 4.97876 6.36561 7.19771 5.11746C9.4444 3.84156 11.9546 3.20361 14.7283 3.20361C17.9735 3.20361 20.8165 4.03572 23.2573 5.69993C25.6982 7.36414 27.404 9.6663 28.3748 12.6064H21.6763C21.0107 11.2196 20.0676 10.1794 18.8472 9.48601C17.6545 8.79259 16.2677 8.44588 14.6867 8.44588C12.9947 8.44588 11.4831 8.84806 10.1517 9.65243C8.84805 10.4291 7.82179 11.5385 7.0729 12.9808C6.35174 14.4232 5.99116 16.1151 5.99116 18.0567C5.99116 19.9705 6.35174 21.6625 7.0729 23.1325C7.82179 24.5749 8.84805 25.6982 10.1517 26.5026C11.4831 27.2792 12.9947 27.6675 14.6867 27.6675C16.2677 27.6675 17.6545 27.3208 18.8472 26.6274C20.0676 25.9062 21.0107 24.8522 21.6763 23.4654H28.3748C27.404 26.4332 25.6982 28.7492 23.2573 30.4135C20.8442 32.0499 18.0012 32.8682 14.7283 32.8682C11.9546 32.8682 9.4444 32.2441 7.19771 30.9959C4.97876 29.72 3.21747 27.9587 1.91384 25.7121C0.637948 23.4654 0 20.9136 0 18.0567Z" fill="#007FFF"/>
<path d="M163.479 9.58691H170.908V32.6184H163.479V9.58691Z" fill="black"/>
<path d="M170.908 7.35831C170.908 9.40991 169.245 11.0731 167.193 11.0731C165.142 11.0731 163.479 9.40991 163.479 7.35831C163.479 5.30671 165.142 3.64355 167.193 3.64355C169.245 3.64355 170.908 5.30671 170.908 7.35831Z" fill="white"/>
<path d="M170.908 5.12931C170.908 7.18091 169.245 8.84406 167.193 8.84406C165.142 8.84406 163.479 7.18091 163.479 5.12931C163.479 3.0777 165.142 1.41455 167.193 1.41455C169.245 1.41455 170.908 3.0777 170.908 5.12931Z" fill="black"/>
<path d="M164.965 19.8854L167.187 9.58691V22.2171L164.965 19.8854Z" fill="white"/>
<path d="M169.409 19.8854L167.187 9.58691V22.2171L169.409 19.8854Z" fill="white"/>
</svg>
