<svg width="220" height="34" viewBox="0 0 220 34" fill="none" xmlns="http://www.w3.org/2000/svg">
<path d="M219.04 21.0512C219.04 21.7169 218.999 22.4104 218.915 23.1315H202.814C202.925 24.5738 203.383 25.6833 204.187 26.4599C205.019 27.2088 206.032 27.5833 207.224 27.5833C208.999 27.5833 210.234 26.8344 210.927 25.3366H218.499C218.111 26.8621 217.404 28.2351 216.377 29.4555C215.379 30.6759 214.117 31.6329 212.591 32.3263C211.066 33.0197 209.36 33.3664 207.474 33.3664C205.199 33.3664 203.175 32.881 201.4 31.9102C199.624 30.9394 198.238 29.5526 197.239 27.7497C196.24 25.9468 195.741 23.8388 195.741 21.4257C195.741 19.0126 196.227 16.9046 197.197 15.1017C198.196 13.2988 199.583 11.912 201.358 10.9412C203.133 9.97038 205.172 9.48499 207.474 9.48499C209.721 9.48499 211.718 9.95651 213.465 10.8996C215.212 11.8426 216.572 13.1879 217.542 14.9353C218.541 16.6827 219.04 18.7214 219.04 21.0512ZM211.759 19.179C211.759 17.9586 211.343 16.9878 210.511 16.2666C209.679 15.5455 208.639 15.1849 207.391 15.1849C206.198 15.1849 205.186 15.5316 204.354 16.225C203.549 16.9185 203.05 17.9031 202.856 19.179H211.759Z" fill="black"/>
<path d="M185.481 33.3664C183.456 33.3664 181.653 33.0197 180.072 32.3263C178.491 31.6329 177.243 30.6898 176.327 29.4971C175.412 28.2767 174.899 26.9176 174.788 25.4198H181.819C181.903 26.2242 182.277 26.876 182.943 27.3752C183.608 27.8745 184.427 28.1241 185.397 28.1241C186.285 28.1241 186.965 27.9577 187.436 27.6249C187.935 27.2643 188.185 26.8066 188.185 26.2519C188.185 25.5862 187.838 25.1008 187.145 24.7957C186.451 24.4629 185.328 24.1023 183.775 23.714C182.111 23.3257 180.724 22.9235 179.614 22.5074C178.505 22.0636 177.548 21.3841 176.744 20.4688C175.939 19.5257 175.537 18.2637 175.537 16.6827C175.537 15.3513 175.898 14.1448 176.619 13.063C177.368 11.9536 178.449 11.0799 179.864 10.4419C181.306 9.80396 183.012 9.48499 184.981 9.48499C187.894 9.48499 190.182 10.2061 191.846 11.6485C193.538 13.0908 194.509 15.0046 194.759 17.39H188.185C188.074 16.5856 187.713 15.9477 187.103 15.4761C186.521 15.0046 185.744 14.7689 184.773 14.7689C183.941 14.7689 183.303 14.9353 182.86 15.2681C182.416 15.5732 182.194 16.0031 182.194 16.5579C182.194 17.2236 182.541 17.7228 183.234 18.0557C183.955 18.3885 185.065 18.7214 186.562 19.0542C188.282 19.498 189.683 19.9418 190.764 20.3856C191.846 20.8016 192.789 21.495 193.594 22.4658C194.426 23.4089 194.856 24.6848 194.883 26.2935C194.883 27.6526 194.495 28.873 193.718 29.9548C192.97 31.0088 191.874 31.8409 190.432 32.4511C189.017 33.0613 187.367 33.3664 185.481 33.3664Z" fill="black"/>
<path d="M161.075 3.82666L153.462 33.0336H144.849L140.189 13.8119L135.363 33.0336H126.751L119.345 3.82666H126.959L131.161 25.087L136.362 3.82666H144.184L149.176 25.087L153.42 3.82666H161.075Z" fill="black"/>
<path d="M106.074 14.7688V25.919C106.074 26.6957 106.254 27.2643 106.615 27.6249C107.003 27.9577 107.641 28.1241 108.529 28.1241H111.233V33.0335H107.572C102.663 33.0335 100.208 30.6482 100.208 25.8774V14.7688H97.4619V9.98422H100.208V4.2843H106.074V9.98422H111.233V14.7688H106.074Z" fill="#6A40DB"/>
<path d="M86.639 9.65137C89.385 9.65137 91.6039 10.5251 93.2959 12.2725C94.9878 13.9922 95.8338 16.4053 95.8338 19.5118V33.0335H90.0091V20.3023C90.0091 18.4717 89.5514 17.071 88.6361 16.1002C87.7208 15.1017 86.4726 14.6024 84.8916 14.6024C83.2829 14.6024 82.007 15.1017 81.0639 16.1002C80.1486 17.071 79.691 18.4717 79.691 20.3023V33.0335H73.8662V9.98421H79.691V12.855C80.4676 11.8564 81.4522 11.0798 82.6449 10.5251C83.8653 9.9426 85.1967 9.65137 86.639 9.65137Z" fill="#6A40DB"/>
<path d="M71.695 21.0096C71.695 21.8417 71.6395 22.5906 71.5286 23.2563H54.6785C54.8171 24.9205 55.3996 26.2241 56.4259 27.1672C57.4521 28.1102 58.7142 28.5817 60.212 28.5817C62.3754 28.5817 63.9148 27.6526 64.8301 25.7942H71.1125C70.4469 28.0131 69.171 29.8438 67.2848 31.2861C65.3987 32.7007 63.0827 33.408 60.3368 33.408C58.1178 33.408 56.1208 32.9226 54.3456 31.9518C52.5982 30.9532 51.2252 29.5525 50.2267 27.7496C49.2559 25.9467 48.7705 23.8665 48.7705 21.5088C48.7705 19.1235 49.2559 17.0293 50.2267 15.2265C51.1975 13.4236 52.5566 12.0367 54.304 11.0659C56.0514 10.0951 58.0624 9.60974 60.3368 9.60974C62.528 9.60974 64.4834 10.0813 66.2031 11.0243C67.9505 11.9674 69.2958 13.3126 70.2388 15.06C71.2096 16.7797 71.695 18.7629 71.695 21.0096ZM65.6622 19.3454C65.6345 17.8476 65.0936 16.6549 64.0396 15.7673C62.9856 14.852 61.6959 14.3943 60.1704 14.3943C58.728 14.3943 57.5076 14.8381 56.5091 15.7257C55.5383 16.5856 54.942 17.7921 54.7201 19.3454H65.6622Z" fill="#6A40DB"/>
<path d="M43.7231 7.2383C42.6968 7.2383 41.837 6.91933 41.1435 6.28138C40.4779 5.6157 40.145 4.79746 40.145 3.82667C40.145 2.85588 40.4779 2.05151 41.1435 1.41357C41.837 0.747881 42.6968 0.415039 43.7231 0.415039C44.7493 0.415039 45.5953 0.747881 46.261 1.41357C46.9544 2.05151 47.3011 2.85588 47.3011 3.82667C47.3011 4.79746 46.9544 5.6157 46.261 6.28138C45.5953 6.91933 44.7493 7.2383 43.7231 7.2383ZM46.5938 9.98425V33.0336H40.7691V9.98425H46.5938Z" fill="#6A40DB"/>
<path d="M37.0943 2.24561V33.0335H31.2695V2.24561H37.0943Z" fill="#6A40DB"/>
<path d="M0 18.4717C0 15.6148 0.637948 13.063 1.91384 10.8164C3.21747 8.54194 4.97876 6.78065 7.19771 5.53249C9.4444 4.2566 11.9546 3.61865 14.7283 3.61865C17.9735 3.61865 20.8165 4.45076 23.2573 6.11497C25.6982 7.77918 27.404 10.0813 28.3748 13.0214H21.6763C21.0107 11.6346 20.0676 10.5945 18.8472 9.90105C17.6545 9.20762 16.2677 8.86092 14.6867 8.86092C12.9947 8.86092 11.4831 9.2631 10.1517 10.0675C8.84805 10.8441 7.82179 11.9536 7.0729 13.3959C6.35174 14.8382 5.99116 16.5302 5.99116 18.4717C5.99116 20.3856 6.35174 22.0775 7.0729 23.5476C7.82179 24.9899 8.84805 26.1132 10.1517 26.9176C11.4831 27.6942 12.9947 28.0825 14.6867 28.0825C16.2677 28.0825 17.6545 27.7358 18.8472 27.0424C20.0676 26.3213 21.0107 25.2673 21.6763 23.8804H28.3748C27.404 26.8483 25.6982 29.1643 23.2573 30.8285C20.8442 32.465 18.0012 33.2832 14.7283 33.2832C11.9546 33.2832 9.4444 32.6591 7.19771 31.411C4.97876 30.1351 3.21747 28.3738 1.91384 26.1271C0.637948 23.8804 0 21.3286 0 18.4717Z" fill="#6A40DB"/>
<path d="M163.479 10.0021H170.909V33.0336H163.479V10.0021Z" fill="black"/>
<path d="M170.909 7.77323C170.909 9.82483 169.245 11.488 167.194 11.488C165.142 11.488 163.479 9.82483 163.479 7.77323C163.479 5.72162 165.142 4.05847 167.194 4.05847C169.245 4.05847 170.909 5.72162 170.909 7.77323Z" fill="white"/>
<path d="M170.909 5.54435C170.909 7.59595 169.245 9.2591 167.194 9.2591C165.142 9.2591 163.479 7.59595 163.479 5.54435C163.479 3.49274 165.142 1.82959 167.194 1.82959C169.245 1.82959 170.909 3.49274 170.909 5.54435Z" fill="black"/>
<path d="M164.965 20.3005L167.187 10.0021V22.6322L164.965 20.3005Z" fill="white"/>
<path d="M169.409 20.3005L167.187 10.0021V22.6322L169.409 20.3005Z" fill="white"/>
</svg>
