<svg width="129" height="126" viewBox="0 0 129 126" fill="none" xmlns="http://www.w3.org/2000/svg">
<g opacity="0.5">
<path d="M29.7347 40.8233C30.6177 40.3135 30.9202 39.1843 30.4103 38.3013C29.9005 37.4183 28.7714 37.1158 27.8884 37.6257C27.0054 38.1355 26.7029 39.2646 27.2127 40.1476C27.7225 41.0306 28.8517 41.3331 29.7347 40.8233Z" fill="black"/>
<path d="M14.8686 55.6911C15.3784 54.808 15.0758 53.6788 14.1927 53.169C13.3096 52.6592 12.1805 52.9618 11.6707 53.8449C11.1608 54.728 11.4634 55.8571 12.3465 56.3669C13.2296 56.8768 14.3588 56.5742 14.8686 55.6911Z" fill="black"/>
<path d="M14.1925 98.8321C15.0756 98.3223 15.3781 97.1932 14.8684 96.3101C14.3586 95.4271 13.2295 95.1245 12.3464 95.6343C11.4634 96.1441 11.1608 97.2732 11.6706 98.1562C12.1804 99.0393 13.3095 99.3418 14.1925 98.8321Z" fill="black"/>
<path d="M30.4105 113.699C30.9203 112.816 30.6177 111.687 29.7347 111.177C28.8516 110.668 27.7225 110.97 27.2126 111.853C26.7028 112.736 27.0054 113.865 27.8885 114.375C28.7716 114.885 29.9007 114.582 30.4105 113.699Z" fill="black"/>
<path d="M72.196 114.375C73.079 113.865 73.3816 112.736 72.8718 111.853C72.362 110.97 71.2329 110.668 70.3498 111.178C69.4668 111.687 69.1642 112.816 69.674 113.699C70.1838 114.582 71.3129 114.885 72.196 114.375Z" fill="black"/>
<path d="M88.4139 98.1562C88.9238 97.2732 88.6213 96.144 87.7382 95.6341C86.8552 95.1243 85.726 95.4268 85.2162 96.3098C84.7063 97.1928 85.0088 98.322 85.8918 98.8319C86.7749 99.3418 87.9041 99.0392 88.4139 98.1562Z" fill="black"/>
<path d="M50.0425 44.613C49.5121 44.6131 49.0034 44.8238 48.6283 45.1989C48.2532 45.5739 48.0425 46.0826 48.0425 46.613V76.0007C48.0432 76.3485 48.135 76.6899 48.3087 76.9912C48.4824 77.2924 48.7319 77.543 49.0325 77.7178L59.5581 95.2625C59.6933 95.4876 59.8715 95.684 60.0825 95.8403C60.2936 95.9967 60.5334 96.1099 60.7882 96.1736C61.043 96.2372 61.3079 96.2501 61.5677 96.2114C61.8274 96.1727 62.0771 96.0832 62.3022 95.948C62.5274 95.8128 62.7238 95.6346 62.8801 95.4236C63.0365 95.2125 63.1497 94.9727 63.2134 94.7179C63.277 94.4631 63.2899 94.1982 63.2512 93.9385C63.2125 93.6787 63.123 93.4291 62.9878 93.2039L52.0425 74.9597V46.613C52.0425 46.0826 51.8317 45.5739 51.4567 45.1989C51.0816 44.8238 50.5729 44.6131 50.0425 44.613Z" fill="black"/>
<path d="M49.9946 126.005L50.0328 126.004L50.0424 126.005L50.0585 126.003C63.2227 125.971 75.8441 120.753 85.1886 111.481C94.5331 102.209 99.8484 89.6281 99.9829 76.4646C100.063 76.1565 100.062 75.8327 99.9793 75.5252C99.9138 67.3215 97.8178 59.2616 93.8785 52.0653C92.4767 52.1794 91.0368 52.3484 89.5645 52.5853C93.4241 59.0875 95.6099 66.4459 95.9258 74.0008H90.6577C90.1272 74.0008 89.6185 74.2115 89.2435 74.5865C88.8684 74.9616 88.6577 75.4703 88.6577 76.0008C88.6577 76.5312 88.8684 77.0399 89.2435 77.415C89.6185 77.79 90.1272 78.0008 90.6577 78.0008H95.9439C95.4315 89.4841 90.6431 100.361 82.5197 108.493C74.3963 116.626 63.5252 121.427 52.0424 121.953V116.62C52.0424 116.089 51.8317 115.581 51.4566 115.206C51.0816 114.831 50.5729 114.62 50.0424 114.62C49.512 114.62 49.0033 114.831 48.6282 115.206C48.2531 115.581 48.0424 116.089 48.0424 116.62V121.955C36.5423 121.453 25.6471 116.662 17.5035 108.527C9.35997 100.391 4.55854 89.5004 4.04524 78.0007H9.42724C9.95767 78.0007 10.4664 77.79 10.8415 77.4149C11.2165 77.0399 11.4272 76.5312 11.4272 76.0007C11.4272 75.4703 11.2165 74.9616 10.8415 74.5865C10.4664 74.2114 9.95767 74.0007 9.42724 74.0007H4.04543C4.56065 62.5025 9.3629 51.6139 17.5062 43.4799C25.6496 35.346 36.5436 30.5562 48.0424 30.0542V35.3816C48.0424 35.9121 48.2531 36.4208 48.6282 36.7959C49.0033 37.1709 49.512 37.3816 50.0424 37.3816C50.5729 37.3816 51.0816 37.1709 51.4566 36.7959C51.8317 36.4208 52.0424 35.9121 52.0424 35.3816V30.0642C54.8156 30.1871 57.5721 30.5599 60.2783 31.178C62.0018 30.2878 63.6244 29.3439 65.1561 28.3612C60.3039 26.8141 55.2431 26.0204 50.1501 26.0077C50.1138 26.0057 50.0793 25.9968 50.0425 25.9968C50.0125 25.9968 49.9847 26.0043 49.9551 26.0056C36.6987 26.0174 23.9895 31.2931 14.6218 40.6728C5.25414 50.0525 -0.00523375 62.7685 3.90828e-06 76.0249C0.00524157 89.2813 5.27467 101.993 14.6498 111.365C24.0249 120.738 36.7382 126.003 49.9946 126.005Z" fill="black"/>
<path d="M113.571 49.5152C114.086 49.8202 114.631 50.0716 115.197 50.2654C115.744 50.4483 116.317 50.5439 116.894 50.5486C117.562 50.5549 118.223 50.3997 118.819 50.0964C118.854 50.0784 118.884 50.0547 118.918 50.0358L118.965 50.0069C124.286 46.966 120.304 32.9599 114.291 21.1199C108.641 9.9929 101.934 1.81713 97.2044 0.289785C96.0756 -0.129189 94.8281 -0.0926569 93.7258 0.391655L93.715 0.396655C93.6708 0.417465 93.6224 0.437485 93.5813 0.458725C93.5329 0.483725 93.4908 0.516095 93.4438 0.542835C93.4162 0.559925 93.388 0.574835 93.3612 0.593315C92.715 1.03783 92.1761 1.621 91.784 2.30029C91.3918 2.97958 91.1563 3.73784 91.0945 4.51977C87.7751 11.1896 79.8793 25.5716 62.0774 34.7517L62.073 34.7546L59.054 36.3113C57.7485 36.9912 56.7638 38.1584 56.3135 39.5598C55.8632 40.9611 55.9836 42.4835 56.6487 43.7966L61.4905 53.3318C61.8187 53.9843 62.273 54.5653 62.8272 55.041C63.3815 55.5168 64.0246 55.8778 64.7193 56.1033C65.4141 56.3287 66.1467 56.414 66.8746 56.3544C67.6026 56.2947 68.3115 56.0912 68.9603 55.7556L70.7851 54.8146C72.6886 59.9222 75.1313 64.8124 78.0716 69.4021C78.5622 70.201 79.2493 70.861 80.0672 71.3191C80.8852 71.7773 81.8069 72.0183 82.7445 72.0193C83.6331 72.018 84.5085 71.8037 85.2972 71.3943L87.2903 70.366C87.9927 70.0022 88.6097 69.4932 89.1005 68.8727C89.5912 68.2523 89.9444 67.5346 90.1367 66.7673C90.329 66 90.3559 65.2006 90.2157 64.4221C90.0755 63.6435 89.7714 62.9037 89.3235 62.2517C86.6519 58.4659 84.6034 54.277 83.2557 49.8438C96.2804 46.3591 107.698 48.2954 113.571 49.5152ZM110.725 22.9304C117.204 35.6897 118.167 44.3246 117.247 46.2009C116.831 46.1194 116.315 46.0089 115.83 45.905C115.549 45.8445 115.242 45.779 114.924 45.7117C112.68 44.111 109.043 40.2221 105.079 33.7278L108.458 30.2575C108.75 29.9587 108.94 29.5761 109.003 29.1635C109.066 28.7508 108.998 28.3288 108.809 27.9568L105.581 21.6003C105.39 21.2251 105.086 20.9197 104.711 20.7274C104.336 20.5351 103.911 20.4657 103.494 20.529L98.7463 21.2591C95.7291 13.9638 94.7614 8.60697 94.8657 5.91807C95.0226 5.60014 95.1727 5.29472 95.3089 5.01634C95.4881 4.65034 95.6617 4.296 95.8107 4.00072C97.8267 4.3305 104.241 10.1643 110.725 22.9304ZM102.996 30.1332C102.557 29.3288 102.117 28.4929 101.676 27.6257C101.23 26.7467 100.81 25.8879 100.416 25.0492L102.67 24.7029L104.595 28.4919L102.996 30.1332ZM91.589 12.0094C93.0322 18.0661 95.2225 23.9199 98.1097 29.4363C100.754 34.8193 104.031 39.868 107.871 44.4753C95.69 42.7108 83.2583 44.5218 72.0865 49.6882L65.7937 37.2975C76.5015 31.3302 85.4103 22.5966 91.589 12.0094ZM65.9612 52.2966C65.7665 52.2339 65.5863 52.1331 65.431 51.9999C65.2758 51.8668 65.1486 51.7041 65.0569 51.5212L60.2151 41.9851C60.0257 41.6144 59.99 41.184 60.116 40.7872C60.242 40.3905 60.5194 40.0594 60.888 39.866L62.1229 39.2296L68.3816 51.5538L67.1263 52.2009C66.9482 52.2936 66.7535 52.3498 66.5534 52.3663C66.3533 52.3827 66.152 52.359 65.9612 52.2966ZM86.0247 64.5154C86.1531 64.7005 86.2401 64.9111 86.2799 65.1329C86.3196 65.3546 86.3112 65.5823 86.2552 65.8005C86.2023 66.0164 86.1035 66.2184 85.9657 66.3928C85.8279 66.5672 85.6542 66.7099 85.4563 66.8113L83.4642 67.8396C83.1234 68.0171 82.7281 68.059 82.3578 67.9568C81.9875 67.8546 81.6696 67.6159 81.4681 67.2888C79.4646 64.0697 75.9784 58.0723 74.4097 53.0261C76.1012 52.2529 77.7786 51.581 79.4416 51.0105C80.9071 55.8323 83.1292 60.3907 86.0247 64.5154Z" fill="black"/>
<path d="M122.63 14.5545L119.476 16.1815C119.241 16.301 119.032 16.4657 118.861 16.6663C118.689 16.8669 118.56 17.0994 118.479 17.3503C118.398 17.6013 118.367 17.8657 118.389 18.1285C118.41 18.3914 118.484 18.6473 118.604 18.8816C118.725 19.116 118.891 19.3241 119.093 19.494C119.295 19.6639 119.528 19.7923 119.779 19.8717C120.031 19.9512 120.296 19.9801 120.558 19.9568C120.821 19.9336 121.076 19.8586 121.31 19.7362L124.464 18.1092C124.699 17.9898 124.908 17.825 125.08 17.6245C125.251 17.4239 125.381 17.1914 125.462 16.9405C125.543 16.6895 125.573 16.425 125.552 16.1622C125.53 15.8994 125.457 15.6435 125.336 15.4092C125.215 15.1748 125.049 14.9667 124.847 14.7968C124.645 14.6269 124.412 14.4985 124.161 14.4191C123.909 14.3396 123.645 14.3107 123.382 14.334C123.119 14.3572 122.864 14.4322 122.63 14.5545Z" fill="black"/>
<path d="M113.571 10.4441C113.994 10.4439 114.407 10.3091 114.749 10.0591C115.092 9.80922 115.346 9.45709 115.475 9.05351L116.244 6.65117C116.325 6.40095 116.356 6.13726 116.334 5.87521C116.313 5.61316 116.24 5.35789 116.12 5.12399C116 4.8901 115.835 4.68218 115.635 4.51214C115.434 4.3421 115.202 4.21327 114.952 4.13302C114.701 4.05277 114.438 4.02269 114.175 4.04448C113.913 4.06628 113.658 4.13952 113.425 4.26003C113.191 4.38054 112.983 4.54595 112.814 4.74679C112.644 4.94763 112.516 5.17995 112.436 5.43047L111.666 7.83281C111.571 8.13274 111.547 8.45097 111.598 8.76169C111.648 9.07241 111.771 9.36688 111.956 9.62122C112.142 9.87556 112.385 10.0826 112.665 10.2256C112.946 10.3686 113.256 10.4434 113.571 10.4441Z" fill="black"/>
<path d="M121.756 27.6883C121.593 28.1928 121.636 28.7417 121.877 29.2144C122.118 29.687 122.536 30.0447 123.041 30.2088L125.424 30.9842C125.929 31.1482 126.478 31.105 126.951 30.8641C127.423 30.6233 127.781 30.2046 127.945 29.7C128.109 29.1955 128.066 28.6465 127.825 28.1738C127.584 27.7011 127.165 27.3435 126.661 27.1795L124.277 26.4041C123.772 26.2414 123.224 26.2852 122.751 26.5259C122.279 26.7665 121.921 27.1845 121.756 27.6883Z" fill="black"/>
</g>
</svg>
