<svg width="24" height="24" viewBox="0 0 24 24" fill="none" xmlns="http://www.w3.org/2000/svg">
<path d="M17.8565 1.43413e-05H9.84517C8.97714 -0.00255248 8.1434 0.339534 7.52685 0.950902C6.91061 1.56225 6.56175 2.39324 6.55733 3.26152V3.8869H3.12946C2.2999 3.88783 1.50445 4.21802 0.917833 4.80463C0.331202 5.39127 0.00123428 6.18676 9.92843e-05 7.01626V20.3949C-0.00806791 21.4925 0.488028 22.533 1.34603 23.2177C2.20402 23.9023 3.32874 24.155 4.39725 23.9033L9.80784 22.649C9.94155 22.6061 10.0858 22.6103 10.2169 22.6607L15.5811 23.9028C16.6106 24.1418 17.6935 23.914 18.5394 23.2802C19.3855 22.6465 19.9084 21.6715 19.9687 20.6161H20.7385C21.6068 20.6117 22.4377 20.2628 23.0491 19.6466C23.6604 19.0301 24.0026 18.1964 24 17.3281V6.14419C23.9981 4.51517 23.3503 2.95365 22.1986 1.80187C21.0468 0.650087 19.4854 0.00186618 17.8565 1.43413e-05ZM18.5875 20.3947C18.5896 21.0707 18.2807 21.7103 17.7496 22.1289C17.2302 22.5464 16.5467 22.6999 15.8985 22.5447L10.5756 21.3136C10.21 21.1974 9.81793 21.1932 9.45019 21.302L4.08065 22.5454C3.4331 22.6981 2.75151 22.5447 2.23186 22.1296C1.701 21.7105 1.39226 21.0709 1.39435 20.3947V8.28308H13.0472C13.432 8.28308 13.7442 7.97109 13.7442 7.58607C13.7442 7.20128 13.432 6.8893 13.0472 6.8893H1.4069C1.43817 6.45341 1.63301 6.04529 1.95246 5.74708C2.27215 5.44886 2.69242 5.28226 3.12945 5.28109H16.8515C17.3117 5.28155 17.7527 5.4645 18.0782 5.79001C18.4035 6.1153 18.5865 6.55631 18.5872 7.01647L18.5875 20.3947ZM22.6064 17.3278C22.6092 17.8265 22.4144 18.306 22.0641 18.6611C21.7141 19.0163 21.2374 19.2179 20.7387 19.2221H19.9812V7.01612C19.9803 6.18656 19.6501 5.3911 19.0635 4.80449C18.4769 4.21786 17.6816 3.88789 16.8519 3.88676H7.9511V3.26137C7.9553 2.76271 8.15691 2.28599 8.51206 1.93594C8.86721 1.58592 9.34676 1.39084 9.84514 1.39364H17.8564C19.1158 1.39527 20.3231 1.89604 21.2136 2.78646C22.104 3.67688 22.6048 4.88423 22.6064 6.1436L22.6064 17.3278Z" fill="#683FDB"/>
<path d="M13.1474 13.2097L11.3844 12.9531L10.5957 11.3558C10.4655 11.1344 10.2277 10.9983 9.97081 10.9983C9.7139 10.9983 9.47612 11.1344 9.34591 11.3558L8.55769 12.9531L6.79427 13.2097C6.53175 13.2478 6.31381 13.4316 6.2319 13.6839C6.14976 13.9359 6.21813 14.2129 6.40808 14.3979L7.68375 15.6421L7.3825 17.3981C7.33746 17.6597 7.44527 17.9238 7.65994 18.0797C7.87462 18.2355 8.1593 18.2561 8.39404 18.1324L9.97097 17.3036L11.5481 18.1324C11.7829 18.2558 12.0673 18.2353 12.282 18.0794C12.4964 17.9236 12.604 17.6594 12.5594 17.3981L12.258 15.6415L13.5336 14.398C13.7236 14.2129 13.7919 13.936 13.7098 13.6837C13.6279 13.4315 13.4099 13.2478 13.1474 13.2097ZM11.0228 14.8996C10.8587 15.0597 10.7838 15.2902 10.8223 15.5161L10.9469 16.2416L10.2952 15.8993C10.0924 15.7924 9.84975 15.7924 9.64677 15.8993L8.99552 16.2416L9.12012 15.5161C9.15862 15.2902 9.08349 15.0597 8.91944 14.8996L8.39232 14.3858L9.1208 14.2796C9.34762 14.2467 9.54409 14.1041 9.64583 13.8983L9.97112 13.2389L10.2971 13.8983C10.3984 14.1041 10.5946 14.2467 10.8214 14.2796L11.5499 14.3858L11.0228 14.8996Z" fill="#683FDB"/>
<path d="M16.4431 7.09275C16.1663 6.83467 15.7372 6.83467 15.4602 7.09275C15.3916 7.15598 15.3391 7.23485 15.3072 7.32282C15.1945 7.5809 15.2558 7.88191 15.4602 8.07561C15.5223 8.14258 15.5986 8.19485 15.6835 8.22868C15.7673 8.26439 15.8572 8.28329 15.9484 8.28445C16.0417 8.28399 16.1339 8.26508 16.2198 8.22868C16.3047 8.19485 16.381 8.14258 16.4431 8.07561C16.5752 7.94797 16.6484 7.7711 16.6452 7.58746C16.6463 7.49692 16.6298 7.40685 16.5962 7.32285C16.5619 7.23628 16.5096 7.15785 16.4431 7.09275Z" fill="#683FDB"/>
</svg>
